<mxfile host="app.diagrams.net" modified="2022-08-22T02:31:58.478Z" agent="5.0 (Macintosh; Intel Mac OS X 10_15_7) AppleWebKit/537.36 (KHTML, like Gecko) Chrome/104.0.0.0 Safari/537.36" etag="PwDS9RJEN0BpmRr4o58M" version="20.2.3" type="github">
  <diagram id="sgpdva6EOUjvvZmH0m_7" name="第 1 页">
    <mxGraphModel dx="988" dy="807" grid="1" gridSize="10" guides="1" tooltips="1" connect="1" arrows="1" fold="1" page="1" pageScale="1" pageWidth="827" pageHeight="1169" math="0" shadow="0">
      <root>
        <mxCell id="0" />
        <mxCell id="1" parent="0" />
        <mxCell id="2wEUu0mrk-EplMBxijP8-1" value="&lt;font style=&quot;font-size: 18px;&quot;&gt;child(sp)&lt;/font&gt;" style="rounded=0;whiteSpace=wrap;html=1;" vertex="1" parent="1">
          <mxGeometry x="90" y="160" width="180" height="60" as="geometry" />
        </mxCell>
        <mxCell id="2wEUu0mrk-EplMBxijP8-2" value="" style="rounded=0;whiteSpace=wrap;html=1;" vertex="1" parent="1">
          <mxGeometry x="90" y="220" width="180" height="60" as="geometry" />
        </mxCell>
        <mxCell id="2wEUu0mrk-EplMBxijP8-3" value="&lt;font style=&quot;font-size: 18px;&quot;&gt;parent(sp)&lt;/font&gt;" style="rounded=0;whiteSpace=wrap;html=1;" vertex="1" parent="1">
          <mxGeometry x="90" y="280" width="180" height="60" as="geometry" />
        </mxCell>
        <mxCell id="2wEUu0mrk-EplMBxijP8-4" value="" style="rounded=0;whiteSpace=wrap;html=1;" vertex="1" parent="1">
          <mxGeometry x="90" y="340" width="180" height="60" as="geometry" />
        </mxCell>
        <mxCell id="2wEUu0mrk-EplMBxijP8-5" value="&lt;font style=&quot;font-size: 18px;&quot;&gt;栈区&lt;/font&gt;" style="text;html=1;align=center;verticalAlign=middle;resizable=0;points=[];autosize=1;strokeColor=none;fillColor=none;" vertex="1" parent="1">
          <mxGeometry x="150" y="115" width="60" height="40" as="geometry" />
        </mxCell>
        <mxCell id="2wEUu0mrk-EplMBxijP8-6" value="" style="ellipse;whiteSpace=wrap;html=1;fontSize=18;" vertex="1" parent="1">
          <mxGeometry x="414" y="115" width="426" height="365" as="geometry" />
        </mxCell>
        <mxCell id="2wEUu0mrk-EplMBxijP8-7" value="&lt;font style=&quot;font-size: 18px;&quot;&gt;_pParent(sp)&lt;/font&gt;" style="rounded=0;whiteSpace=wrap;html=1;" vertex="1" parent="1">
          <mxGeometry x="537" y="180" width="180" height="60" as="geometry" />
        </mxCell>
        <mxCell id="2wEUu0mrk-EplMBxijP8-8" value="堆区" style="text;html=1;align=center;verticalAlign=middle;resizable=0;points=[];autosize=1;strokeColor=none;fillColor=none;fontSize=18;" vertex="1" parent="1">
          <mxGeometry x="570" y="30" width="60" height="40" as="geometry" />
        </mxCell>
        <mxCell id="2wEUu0mrk-EplMBxijP8-9" value="&lt;font style=&quot;font-size: 18px;&quot;&gt;_pChild(sp)&lt;/font&gt;" style="rounded=0;whiteSpace=wrap;html=1;" vertex="1" parent="1">
          <mxGeometry x="537" y="310" width="180" height="60" as="geometry" />
        </mxCell>
        <mxCell id="2wEUu0mrk-EplMBxijP8-10" value="child对象" style="text;html=1;align=center;verticalAlign=middle;resizable=0;points=[];autosize=1;strokeColor=none;fillColor=none;fontSize=18;" vertex="1" parent="1">
          <mxGeometry x="570" y="140" width="100" height="40" as="geometry" />
        </mxCell>
        <mxCell id="2wEUu0mrk-EplMBxijP8-11" value="parent对象" style="text;html=1;align=center;verticalAlign=middle;resizable=0;points=[];autosize=1;strokeColor=none;fillColor=none;fontSize=18;" vertex="1" parent="1">
          <mxGeometry x="572" y="270" width="110" height="40" as="geometry" />
        </mxCell>
        <mxCell id="2wEUu0mrk-EplMBxijP8-12" value="" style="endArrow=classic;html=1;rounded=0;fontSize=18;" edge="1" parent="1" target="2wEUu0mrk-EplMBxijP8-7">
          <mxGeometry width="50" height="50" relative="1" as="geometry">
            <mxPoint x="270" y="190" as="sourcePoint" />
            <mxPoint x="320" y="140" as="targetPoint" />
          </mxGeometry>
        </mxCell>
        <mxCell id="2wEUu0mrk-EplMBxijP8-13" value="" style="endArrow=classic;html=1;rounded=0;fontSize=18;" edge="1" parent="1">
          <mxGeometry width="50" height="50" relative="1" as="geometry">
            <mxPoint x="270" y="320" as="sourcePoint" />
            <mxPoint x="537" y="334.9579831932773" as="targetPoint" />
          </mxGeometry>
        </mxCell>
        <mxCell id="2wEUu0mrk-EplMBxijP8-14" value="" style="endArrow=classic;html=1;rounded=0;fontSize=18;entryX=0.128;entryY=0;entryDx=0;entryDy=0;entryPerimeter=0;" edge="1" parent="1" target="2wEUu0mrk-EplMBxijP8-9">
          <mxGeometry width="50" height="50" relative="1" as="geometry">
            <mxPoint x="560" y="240" as="sourcePoint" />
            <mxPoint x="610" y="190" as="targetPoint" />
          </mxGeometry>
        </mxCell>
        <mxCell id="2wEUu0mrk-EplMBxijP8-16" value="" style="endArrow=classic;html=1;rounded=0;fontSize=18;entryX=0.8;entryY=1.05;entryDx=0;entryDy=0;entryPerimeter=0;" edge="1" parent="1" target="2wEUu0mrk-EplMBxijP8-7">
          <mxGeometry width="50" height="50" relative="1" as="geometry">
            <mxPoint x="682" y="310" as="sourcePoint" />
            <mxPoint x="732" y="260" as="targetPoint" />
          </mxGeometry>
        </mxCell>
        <mxCell id="2wEUu0mrk-EplMBxijP8-17" value="child指向child对象&lt;br&gt;_pChild指向child对象" style="text;html=1;align=center;verticalAlign=middle;resizable=0;points=[];autosize=1;strokeColor=none;fillColor=none;fontSize=18;" vertex="1" parent="1">
          <mxGeometry x="270" y="460" width="190" height="60" as="geometry" />
        </mxCell>
        <mxCell id="2wEUu0mrk-EplMBxijP8-18" value="2" style="text;html=1;align=center;verticalAlign=middle;resizable=0;points=[];autosize=1;strokeColor=none;fillColor=none;fontSize=18;" vertex="1" parent="1">
          <mxGeometry x="360" y="150" width="30" height="40" as="geometry" />
        </mxCell>
        <mxCell id="2wEUu0mrk-EplMBxijP8-19" value="2" style="text;html=1;align=center;verticalAlign=middle;resizable=0;points=[];autosize=1;strokeColor=none;fillColor=none;fontSize=18;" vertex="1" parent="1">
          <mxGeometry x="345" y="290" width="30" height="40" as="geometry" />
        </mxCell>
        <mxCell id="2wEUu0mrk-EplMBxijP8-20" value="2" style="text;html=1;align=center;verticalAlign=middle;resizable=0;points=[];autosize=1;strokeColor=none;fillColor=none;fontSize=18;" vertex="1" parent="1">
          <mxGeometry x="520" y="260" width="30" height="40" as="geometry" />
        </mxCell>
        <mxCell id="2wEUu0mrk-EplMBxijP8-21" value="2" style="text;html=1;align=center;verticalAlign=middle;resizable=0;points=[];autosize=1;strokeColor=none;fillColor=none;fontSize=18;" vertex="1" parent="1">
          <mxGeometry x="687" y="260" width="30" height="40" as="geometry" />
        </mxCell>
        <mxCell id="2wEUu0mrk-EplMBxijP8-22" value="&lt;font style=&quot;font-size: 18px;&quot;&gt;child(sp)&lt;/font&gt;" style="rounded=0;whiteSpace=wrap;html=1;" vertex="1" parent="1">
          <mxGeometry x="100" y="745" width="180" height="60" as="geometry" />
        </mxCell>
        <mxCell id="2wEUu0mrk-EplMBxijP8-23" value="" style="rounded=0;whiteSpace=wrap;html=1;" vertex="1" parent="1">
          <mxGeometry x="100" y="805" width="180" height="60" as="geometry" />
        </mxCell>
        <mxCell id="2wEUu0mrk-EplMBxijP8-24" value="&lt;font style=&quot;font-size: 18px;&quot;&gt;parent(sp)&lt;/font&gt;" style="rounded=0;whiteSpace=wrap;html=1;" vertex="1" parent="1">
          <mxGeometry x="100" y="865" width="180" height="60" as="geometry" />
        </mxCell>
        <mxCell id="2wEUu0mrk-EplMBxijP8-25" value="" style="rounded=0;whiteSpace=wrap;html=1;" vertex="1" parent="1">
          <mxGeometry x="100" y="925" width="180" height="60" as="geometry" />
        </mxCell>
        <mxCell id="2wEUu0mrk-EplMBxijP8-26" value="&lt;font style=&quot;font-size: 18px;&quot;&gt;栈区&lt;/font&gt;" style="text;html=1;align=center;verticalAlign=middle;resizable=0;points=[];autosize=1;strokeColor=none;fillColor=none;" vertex="1" parent="1">
          <mxGeometry x="160" y="700" width="60" height="40" as="geometry" />
        </mxCell>
        <mxCell id="2wEUu0mrk-EplMBxijP8-27" value="" style="ellipse;whiteSpace=wrap;html=1;fontSize=18;" vertex="1" parent="1">
          <mxGeometry x="424" y="700" width="426" height="365" as="geometry" />
        </mxCell>
        <mxCell id="2wEUu0mrk-EplMBxijP8-28" value="&lt;font style=&quot;font-size: 18px;&quot;&gt;_pParent(sp)&lt;/font&gt;" style="rounded=0;whiteSpace=wrap;html=1;" vertex="1" parent="1">
          <mxGeometry x="547" y="765" width="180" height="60" as="geometry" />
        </mxCell>
        <mxCell id="2wEUu0mrk-EplMBxijP8-29" value="&lt;font style=&quot;font-size: 18px;&quot;&gt;_pChild(sp)&lt;/font&gt;" style="rounded=0;whiteSpace=wrap;html=1;" vertex="1" parent="1">
          <mxGeometry x="547" y="895" width="180" height="60" as="geometry" />
        </mxCell>
        <mxCell id="2wEUu0mrk-EplMBxijP8-30" value="child对象" style="text;html=1;align=center;verticalAlign=middle;resizable=0;points=[];autosize=1;strokeColor=none;fillColor=none;fontSize=18;" vertex="1" parent="1">
          <mxGeometry x="580" y="725" width="100" height="40" as="geometry" />
        </mxCell>
        <mxCell id="2wEUu0mrk-EplMBxijP8-31" value="parent对象" style="text;html=1;align=center;verticalAlign=middle;resizable=0;points=[];autosize=1;strokeColor=none;fillColor=none;fontSize=18;" vertex="1" parent="1">
          <mxGeometry x="582" y="855" width="110" height="40" as="geometry" />
        </mxCell>
        <mxCell id="2wEUu0mrk-EplMBxijP8-32" value="" style="endArrow=classic;html=1;rounded=0;fontSize=18;" edge="1" parent="1">
          <mxGeometry width="50" height="50" relative="1" as="geometry">
            <mxPoint x="280" y="775" as="sourcePoint" />
            <mxPoint x="460" y="690" as="targetPoint" />
          </mxGeometry>
        </mxCell>
        <mxCell id="2wEUu0mrk-EplMBxijP8-41" value="1" style="edgeLabel;html=1;align=center;verticalAlign=middle;resizable=0;points=[];fontSize=18;" vertex="1" connectable="0" parent="2wEUu0mrk-EplMBxijP8-32">
          <mxGeometry x="-0.0492" y="-1" relative="1" as="geometry">
            <mxPoint as="offset" />
          </mxGeometry>
        </mxCell>
        <mxCell id="2wEUu0mrk-EplMBxijP8-33" value="" style="endArrow=classic;html=1;rounded=0;fontSize=18;" edge="1" parent="1">
          <mxGeometry width="50" height="50" relative="1" as="geometry">
            <mxPoint x="280" y="955" as="sourcePoint" />
            <mxPoint x="450" y="1080" as="targetPoint" />
          </mxGeometry>
        </mxCell>
        <mxCell id="2wEUu0mrk-EplMBxijP8-42" value="1" style="edgeLabel;html=1;align=center;verticalAlign=middle;resizable=0;points=[];fontSize=18;" vertex="1" connectable="0" parent="2wEUu0mrk-EplMBxijP8-33">
          <mxGeometry x="-0.0988" y="-3" relative="1" as="geometry">
            <mxPoint as="offset" />
          </mxGeometry>
        </mxCell>
        <mxCell id="2wEUu0mrk-EplMBxijP8-34" value="" style="endArrow=classic;html=1;rounded=0;fontSize=18;entryX=0.128;entryY=0;entryDx=0;entryDy=0;entryPerimeter=0;" edge="1" parent="1" target="2wEUu0mrk-EplMBxijP8-29">
          <mxGeometry width="50" height="50" relative="1" as="geometry">
            <mxPoint x="570" y="825" as="sourcePoint" />
            <mxPoint x="620" y="775" as="targetPoint" />
          </mxGeometry>
        </mxCell>
        <mxCell id="2wEUu0mrk-EplMBxijP8-43" value="1" style="edgeLabel;html=1;align=center;verticalAlign=middle;resizable=0;points=[];fontSize=18;" vertex="1" connectable="0" parent="2wEUu0mrk-EplMBxijP8-34">
          <mxGeometry x="-0.0714" y="3" relative="1" as="geometry">
            <mxPoint as="offset" />
          </mxGeometry>
        </mxCell>
        <mxCell id="2wEUu0mrk-EplMBxijP8-35" value="" style="endArrow=classic;html=1;rounded=0;fontSize=18;entryX=0.8;entryY=1.05;entryDx=0;entryDy=0;entryPerimeter=0;" edge="1" parent="1" target="2wEUu0mrk-EplMBxijP8-28">
          <mxGeometry width="50" height="50" relative="1" as="geometry">
            <mxPoint x="692" y="895" as="sourcePoint" />
            <mxPoint x="742" y="845" as="targetPoint" />
          </mxGeometry>
        </mxCell>
        <mxCell id="2wEUu0mrk-EplMBxijP8-44" value="1" style="edgeLabel;html=1;align=center;verticalAlign=middle;resizable=0;points=[];fontSize=18;" vertex="1" connectable="0" parent="2wEUu0mrk-EplMBxijP8-35">
          <mxGeometry x="0.2082" y="-2" relative="1" as="geometry">
            <mxPoint as="offset" />
          </mxGeometry>
        </mxCell>
        <mxCell id="2wEUu0mrk-EplMBxijP8-45" value="内存释放失败" style="text;html=1;align=center;verticalAlign=middle;resizable=0;points=[];autosize=1;strokeColor=none;fillColor=none;fontSize=18;" vertex="1" parent="1">
          <mxGeometry x="330" y="1100" width="130" height="40" as="geometry" />
        </mxCell>
      </root>
    </mxGraphModel>
  </diagram>
</mxfile>
